<svg width="1440" height="1024" viewBox="0 0 1440 1024" fill="none" xmlns="http://www.w3.org/2000/svg">
<g clip-path="url(#clip0_978_13)">
<rect width="1440" height="1024" fill="url(#paint0_linear_978_13)"/>
<g style="mix-blend-mode:overlay" opacity="0.25">
<rect width="1440" height="1024" fill="url(#paint1_linear_978_13)"/>
</g>
<mask id="mask0_978_13" style="mask-type:alpha" maskUnits="userSpaceOnUse" x="-2148" y="-804" width="5735" height="2632">
<g style="mix-blend-mode:overlay">
<path opacity="0.77" d="M58.1576 -94.4282L-162.333 6.63984" stroke="#22DDD2" stroke-width="4"/>
<path opacity="0.57" d="M58.1577 -94.4282L278.648 6.63984" stroke="#22DDD2" stroke-width="4"/>
<path opacity="0.71" d="M499.138 -94.4282L278.648 6.63984" stroke="#22DDD2" stroke-width="4"/>
<path opacity="0.88" d="M499.138 -94.4282L719.628 6.63984" stroke="#22DDD2" stroke-width="4"/>
<path opacity="0.24" d="M719.628 -94.4282L940.118 6.63984" stroke="#22DDD2" stroke-width="4"/>
<path opacity="0.85" d="M1160.61 -94.4282L940.118 6.63984" stroke="#22DDD2" stroke-width="4"/>
<path opacity="0.46" d="M1160.61 -94.4282L1381.1 6.63984" stroke="#22DDD2" stroke-width="4"/>
<path opacity="0.93" d="M1381.1 -94.4282L1601.59 6.63984" stroke="#22DDD2" stroke-width="4"/>
<path opacity="0.55" d="M-162.333 6.63983L58.1576 107.708" stroke="#22DDD2" stroke-width="4"/>
<path opacity="0.38" d="M58.1577 6.63983L278.648 107.708" stroke="#22DDD2" stroke-width="4"/>
<path opacity="0.9" d="M278.648 6.63983L499.138 107.708" stroke="#22DDD2" stroke-width="4"/>
<path opacity="0.49" d="M499.138 6.63983L719.628 107.708" stroke="#22DDD2" stroke-width="4"/>
<path opacity="0.62" d="M719.628 6.63983L940.118 107.708" stroke="#22DDD2" stroke-width="4"/>
<path opacity="0.9" d="M1160.61 6.63983L940.118 107.708" stroke="#22DDD2" stroke-width="4"/>
<path opacity="0.43" d="M1160.61 6.63983L1381.1 107.708" stroke="#22DDD2" stroke-width="4"/>
<path opacity="0.08" d="M1381.1 6.63983L1601.59 107.708" stroke="#22DDD2" stroke-width="4"/>
<path opacity="0.96" d="M-162.333 107.708L58.1576 208.776" stroke="#22DDD2" stroke-width="4"/>
<path opacity="0.28" d="M58.1577 107.708L278.648 208.776" stroke="#22DDD2" stroke-width="4"/>
<path opacity="0.18" d="M278.648 107.708L499.138 208.776" stroke="#22DDD2" stroke-width="4"/>
<path opacity="0.19" d="M499.138 107.708L719.628 208.776" stroke="#22DDD2" stroke-width="4"/>
<path opacity="0.46" d="M719.628 107.708L940.118 208.776" stroke="#22DDD2" stroke-width="4"/>
<path opacity="0.43" d="M940.118 107.708L1160.61 208.776" stroke="#22DDD2" stroke-width="4"/>
<path opacity="0.33" d="M1160.61 107.708L1381.1 208.776" stroke="#22DDD2" stroke-width="4"/>
<path opacity="0.21" d="M1381.1 107.708L1601.59 208.776" stroke="#22DDD2" stroke-width="4"/>
<path opacity="0.54" d="M58.1576 208.776L-162.333 309.844" stroke="#22DDD2" stroke-width="4"/>
<path opacity="0.12" d="M278.648 208.776L58.1577 309.844" stroke="#22DDD2" stroke-width="4"/>
<path opacity="0.6" d="M278.648 208.776L499.138 309.844" stroke="#22DDD2" stroke-width="4"/>
<path opacity="0.78" d="M499.138 208.776L719.628 309.844" stroke="#22DDD2" stroke-width="4"/>
<path opacity="0.26" d="M719.628 208.776L940.118 309.844" stroke="#22DDD2" stroke-width="4"/>
<path opacity="0.91" d="M1160.61 208.776L940.118 309.844" stroke="#22DDD2" stroke-width="4"/>
<path opacity="0.63" d="M1160.61 208.776L1381.1 309.844" stroke="#22DDD2" stroke-width="4"/>
<path opacity="0.52" d="M1601.59 208.776L1381.1 309.844" stroke="#22DDD2" stroke-width="4"/>
<path opacity="0.75" d="M-162.333 309.844L58.1576 410.912" stroke="#22DDD2" stroke-width="4"/>
<path opacity="0.83" d="M58.1577 309.844L278.648 410.912" stroke="#22DDD2" stroke-width="4"/>
<path opacity="0.92" d="M278.648 309.844L499.138 410.912" stroke="#22DDD2" stroke-width="4"/>
<path opacity="0.32" d="M719.628 309.844L499.138 410.912" stroke="#22DDD2" stroke-width="4"/>
<path opacity="0.67" d="M719.628 309.844L940.118 410.912" stroke="#22DDD2" stroke-width="4"/>
<path opacity="0.48" d="M940.118 309.844L1160.61 410.912" stroke="#22DDD2" stroke-width="4"/>
<path opacity="0.57" d="M1160.61 309.844L1381.1 410.912" stroke="#22DDD2" stroke-width="4"/>
<path opacity="0.3" d="M1381.1 309.844L1601.59 410.912" stroke="#22DDD2" stroke-width="4"/>
<path opacity="0.45" d="M58.1576 410.912L-162.333 511.98" stroke="#22DDD2" stroke-width="4"/>
<path opacity="0.86" d="M58.1577 410.912L278.648 511.98" stroke="#22DDD2" stroke-width="4"/>
<path opacity="0.63" d="M278.648 410.912L499.138 511.98" stroke="#22DDD2" stroke-width="4"/>
<path opacity="0.9" d="M499.138 410.912L719.628 511.98" stroke="#22DDD2" stroke-width="4"/>
<path opacity="0.12" d="M719.628 410.912L940.118 511.98" stroke="#22DDD2" stroke-width="4"/>
<path opacity="0.75" d="M940.118 410.912L1160.61 511.98" stroke="#22DDD2" stroke-width="4"/>
<path opacity="0.29" d="M1381.1 410.912L1160.61 511.98" stroke="#22DDD2" stroke-width="4"/>
<path opacity="0.91" d="M1601.59 410.912L1381.1 511.98" stroke="#22DDD2" stroke-width="4"/>
<path opacity="0.49" d="M-162.333 511.98L58.1576 613.048" stroke="#22DDD2" stroke-width="4"/>
<path opacity="0.62" d="M278.648 511.98L58.1577 613.048" stroke="#22DDD2" stroke-width="4"/>
<path opacity="0.14" d="M278.648 511.98L499.138 613.048" stroke="#22DDD2" stroke-width="4"/>
<path opacity="0.35" d="M499.138 511.98L719.628 613.048" stroke="#22DDD2" stroke-width="4"/>
<path opacity="0.88" d="M940.118 511.98L719.628 613.048" stroke="#22DDD2" stroke-width="4"/>
<path opacity="0.72" d="M940.118 511.98L1160.61 613.048" stroke="#22DDD2" stroke-width="4"/>
<path opacity="0.46" d="M1160.61 511.98L1381.1 613.048" stroke="#22DDD2" stroke-width="4"/>
<path opacity="0.61" d="M1381.1 511.98L1601.59 613.048" stroke="#22DDD2" stroke-width="4"/>
<path opacity="0.14" d="M-162.333 613.048L58.1576 714.116" stroke="#22DDD2" stroke-width="4"/>
<path opacity="0.68" d="M58.1577 613.048L278.648 714.116" stroke="#22DDD2" stroke-width="4"/>
<path opacity="0.62" d="M278.648 613.048L499.138 714.116" stroke="#22DDD2" stroke-width="4"/>
<path opacity="0.09" d="M719.628 613.048L499.138 714.116" stroke="#22DDD2" stroke-width="4"/>
<path opacity="0.99" d="M719.628 613.048L940.118 714.116" stroke="#22DDD2" stroke-width="4"/>
<path opacity="0.99" d="M940.118 613.048L1160.61 714.116" stroke="#22DDD2" stroke-width="4"/>
<path opacity="0.25" d="M1381.1 613.048L1160.61 714.116" stroke="#22DDD2" stroke-width="4"/>
<path opacity="0.88" d="M1381.1 613.048L1601.59 714.116" stroke="#22DDD2" stroke-width="4"/>
<path opacity="0.37" d="M-162.333 714.116L58.1576 815.184" stroke="#22DDD2" stroke-width="4"/>
<path opacity="0.91" d="M278.648 714.116L58.1577 815.184" stroke="#22DDD2" stroke-width="4"/>
<path opacity="0.07" d="M278.648 714.116L499.138 815.184" stroke="#22DDD2" stroke-width="4"/>
<path opacity="0.45" d="M499.138 714.116L719.628 815.184" stroke="#22DDD2" stroke-width="4"/>
<path opacity="0.34" d="M719.628 714.116L940.118 815.184" stroke="#22DDD2" stroke-width="4"/>
<path opacity="0.76" d="M940.118 714.116L1160.61 815.184" stroke="#22DDD2" stroke-width="4"/>
<path opacity="0.32" d="M1160.61 714.116L1381.1 815.184" stroke="#22DDD2" stroke-width="4"/>
<path opacity="0.53" d="M1381.1 714.116L1601.59 815.184" stroke="#22DDD2" stroke-width="4"/>
<path opacity="0.45" d="M-162.333 815.184L58.1576 916.252" stroke="#22DDD2" stroke-width="4"/>
<path opacity="0.89" d="M278.648 815.184L58.1577 916.252" stroke="#22DDD2" stroke-width="4"/>
<path opacity="0.94" d="M278.648 815.184L499.138 916.252" stroke="#22DDD2" stroke-width="4"/>
<path opacity="0.24" d="M499.138 815.184L719.628 916.252" stroke="#22DDD2" stroke-width="4"/>
<path opacity="0.15" d="M719.628 815.184L940.118 916.252" stroke="#22DDD2" stroke-width="4"/>
<path opacity="0.55" d="M1160.61 815.184L940.118 916.252" stroke="#22DDD2" stroke-width="4"/>
<path opacity="0.99" d="M1160.61 815.184L1381.1 916.252" stroke="#22DDD2" stroke-width="4"/>
<path opacity="0.74" d="M1381.1 815.184L1601.59 916.252" stroke="#22DDD2" stroke-width="4"/>
<path opacity="0.21" d="M-162.333 916.252L58.1576 1017.32" stroke="#22DDD2" stroke-width="4"/>
<path opacity="0.93" d="M58.1577 916.252L278.648 1017.32" stroke="#22DDD2" stroke-width="4"/>
<path opacity="0.2" d="M278.648 916.252L499.138 1017.32" stroke="#22DDD2" stroke-width="4"/>
<path opacity="0.44" d="M499.138 916.252L719.628 1017.32" stroke="#22DDD2" stroke-width="4"/>
<path opacity="0.78" d="M719.628 916.252L940.118 1017.32" stroke="#22DDD2" stroke-width="4"/>
<path opacity="0.76" d="M940.118 916.252L1160.61 1017.32" stroke="#22DDD2" stroke-width="4"/>
<path opacity="0.45" d="M1381.1 916.252L1160.61 1017.32" stroke="#22DDD2" stroke-width="4"/>
<path opacity="0.48" d="M1381.1 916.252L1601.59 1017.32" stroke="#22DDD2" stroke-width="4"/>
<path opacity="0.87" d="M58.1576 1017.32L-162.333 1118.39" stroke="#22DDD2" stroke-width="4"/>
<path opacity="0.66" d="M58.1577 1017.32L278.648 1118.39" stroke="#22DDD2" stroke-width="4"/>
<path opacity="0.07" d="M278.648 1017.32L499.138 1118.39" stroke="#22DDD2" stroke-width="4"/>
<path opacity="0.14" d="M499.138 1017.32L719.628 1118.39" stroke="#22DDD2" stroke-width="4"/>
<path opacity="0.69" d="M719.628 1017.32L940.118 1118.39" stroke="#22DDD2" stroke-width="4"/>
<path opacity="0.59" d="M1160.61 1017.32L940.118 1118.39" stroke="#22DDD2" stroke-width="4"/>
<path opacity="0.9" d="M1381.1 1017.32L1160.61 1118.39" stroke="#22DDD2" stroke-width="4"/>
<path opacity="0.09" d="M1601.59 1017.32L1381.1 1118.39" stroke="#22DDD2" stroke-width="4"/>
</g>
</mask>
<g mask="url(#mask0_978_13)">
<g style="mix-blend-mode:overlay">
<rect width="1440" height="1024" fill="url(#paint2_linear_978_13)"/>
</g>
</g>
<g style="mix-blend-mode:overlay">
<rect x="-2" width="1440" height="1024" fill="url(#paint3_linear_978_13)" fill-opacity="0.75"/>
</g>
</g>
<defs>
<linearGradient id="paint0_linear_978_13" x1="720" y1="0" x2="720" y2="1024" gradientUnits="userSpaceOnUse">
<stop stop-color="#202535"/>
<stop offset="1" stop-color="#121729"/>
</linearGradient>
<linearGradient id="paint1_linear_978_13" x1="0" y1="0" x2="1440" y2="1024" gradientUnits="userSpaceOnUse">
<stop offset="0.0001" stop-color="white"/>
<stop offset="1" stop-color="#22DDD2"/>
</linearGradient>
<linearGradient id="paint2_linear_978_13" x1="0" y1="0" x2="1440" y2="1024" gradientUnits="userSpaceOnUse">
<stop stop-color="#22DDD2" stop-opacity="0"/>
<stop offset="1" stop-color="white"/>
</linearGradient>
<linearGradient id="paint3_linear_978_13" x1="-2" y1="0" x2="1438" y2="1024" gradientUnits="userSpaceOnUse">
<stop stop-color="white" stop-opacity="0"/>
<stop offset="0.506381" stop-color="white" stop-opacity="0.75"/>
<stop offset="1" stop-color="white" stop-opacity="0"/>
</linearGradient>
<clipPath id="clip0_978_13">
<rect width="1440" height="1024" fill="white"/>
</clipPath>
</defs>
</svg>
