<svg width="41" height="40" viewBox="0 0 41 40" fill="none" xmlns="http://www.w3.org/2000/svg">
<g clip-path="url(#clip0_971_2)">
<path fill-rule="evenodd" clip-rule="evenodd" d="M3.06004 11.4872C3.06025 10.546 3.71306 9.39064 4.52081 8.90471L18.642 0.409868C19.4487 -0.0754236 20.7552 -0.0754238 21.5633 0.411573L35.6894 8.92261C36.4963 9.40854 37.15 10.5643 37.1498 11.5096L37.1438 28.4752C37.1436 29.4178 36.4897 30.5777 35.6843 31.0655L21.5327 39.6343C20.7268 40.1224 19.4221 40.1222 18.6149 39.6322L4.51293 31.0676C3.7073 30.5785 3.05471 29.4195 3.05513 28.4779L3.06004 11.4874V11.4872ZM6.03018 10.1074L20.0612 17.9417L33.4384 10.2099L20.0386 2.34166L6.02997 10.1074H6.03018ZM5.12524 12.643C5.12524 12.9899 4.89826 27.9583 4.89826 27.9583C4.89101 28.4285 5.21092 29.0063 5.61586 29.2507L18.7471 37.1752L18.8679 20.6764C18.8679 20.6764 5.12545 12.2958 5.12545 12.643H5.12524ZM21.3457 37.1394L34.3278 28.8999C34.8248 28.5845 35.2278 27.8524 35.2278 27.2633V12.5588L21.3457 20.5538V37.1394Z" fill="white"/>
<path fill-rule="evenodd" clip-rule="evenodd" d="M9.4251 20.9053C8.40592 21.494 7.05469 21.0619 6.40721 19.9407C5.75994 18.8194 6.06152 17.4332 7.08069 16.8448C8.10008 16.2561 9.45131 16.6881 10.0986 17.8094C10.7461 18.9307 10.4445 20.3168 9.4251 20.9053ZM16.2452 25.381C15.226 25.9696 13.8748 25.5376 13.2273 24.4164C12.58 23.2951 12.8816 21.9089 13.9008 21.3205C14.9202 20.7318 16.2714 21.1638 16.9187 22.2851C17.5661 23.4063 17.2646 24.7925 16.2452 25.381ZM9.4251 28.791C8.40592 29.3797 7.05469 28.9477 6.40721 27.8264C5.75994 26.7051 6.06152 25.319 7.08069 24.7305C8.10008 24.1418 9.45131 24.5739 10.0986 25.6951C10.7461 26.8164 10.4445 28.2026 9.4251 28.791ZM16.2452 33.2667C15.226 33.8554 13.8748 33.4233 13.2273 32.3021C12.58 31.1808 12.8816 29.7946 13.9008 29.2062C14.9202 28.6175 16.2714 29.0495 16.9187 30.1708C17.5661 31.2921 17.2646 32.6782 16.2452 33.2667ZM32.9199 16.6317C31.9005 16.043 30.5495 16.475 29.902 17.5963C29.2547 18.7175 29.5561 20.1037 30.5755 20.6922C31.5948 21.2808 32.9461 20.8488 33.5933 19.7275C34.2408 18.6063 33.9392 17.2201 32.9199 16.6317ZM29.4591 22.8124C28.4399 22.2237 27.0887 22.6557 26.4412 23.777C25.7939 24.8982 26.0955 26.2844 27.1147 26.8729C28.1341 27.4615 29.4853 27.0295 30.1326 25.9083C30.7801 24.787 30.4785 23.4008 29.4591 22.8124ZM25.8359 28.7799C24.8167 28.1913 23.4655 28.6233 22.818 29.7445C22.1708 30.8658 22.4723 32.252 23.4915 32.8404C24.5109 33.4291 25.8621 32.9971 26.5094 31.8758C27.1569 30.7546 26.8553 29.3684 25.8359 28.7799ZM20.2392 7.41708C18.8856 7.41708 17.7882 8.46674 17.7882 9.76149C17.7882 11.0562 18.8856 12.1059 20.2392 12.1059C21.5928 12.1059 22.6902 11.0562 22.6902 9.76149C22.6902 8.46674 21.5928 7.41708 20.2392 7.41708Z" fill="white"/>
</g>
<defs>
<clipPath id="clip0_971_2">
<rect width="40" height="40" fill="white" transform="translate(0.124573)"/>
</clipPath>
</defs>
</svg>
