<svg width="572" height="540" viewBox="0 0 572 540" fill="none" xmlns="http://www.w3.org/2000/svg">
<g filter="url(#filter0_d_903_1074)">
<path fill-rule="evenodd" clip-rule="evenodd" d="M389.295 116.76C346.771 74.2389 277.826 74.2389 235.303 116.76C224.739 127.323 216.799 139.517 211.484 152.531C225.667 153.721 239.717 156.848 253.207 161.911V153.696C253.207 143.185 261.728 134.663 272.241 134.663L352.355 134.663C362.867 134.663 371.389 143.185 371.389 153.696L371.389 233.805C371.389 244.317 362.867 252.838 352.355 252.838H344.16C349.226 266.324 352.355 280.37 353.549 294.549C366.554 289.234 378.738 281.299 389.295 270.743C431.818 228.222 431.818 159.281 389.295 116.76ZM208.829 159.755C223.943 160.816 238.927 164.182 253.207 169.852L253.207 203.294C237.637 195.113 220.622 190.654 203.477 189.917C203.834 179.714 205.618 169.552 208.829 159.755ZM316.163 302.566C326.366 302.206 336.528 300.419 346.325 297.206C345.261 282.095 341.891 267.115 336.217 252.838L302.769 252.838C310.957 268.406 315.421 285.421 316.163 302.566Z" fill="url(#paint0_linear_903_1074)"/>
<path fill-rule="evenodd" clip-rule="evenodd" d="M331.294 226.492C334.069 224.88 336.682 222.886 339.059 220.51C353.838 205.731 353.838 181.771 339.059 166.992C324.279 152.214 300.317 152.214 285.538 166.992C283.159 169.371 281.163 171.988 279.55 174.766C289.851 181.066 299.578 188.674 308.493 197.588C317.397 206.492 324.997 216.206 331.294 226.492ZM324.496 229.583C318.593 220.072 311.512 211.083 303.255 202.826C294.987 194.558 285.986 187.471 276.461 181.564C271.978 194.778 275.004 209.976 285.538 220.51C296.075 231.046 311.279 234.07 324.496 229.583Z" fill="url(#paint1_linear_903_1074)"/>
<path fill-rule="evenodd" clip-rule="evenodd" d="M303.255 202.826C245.337 144.91 151.432 144.91 93.5134 202.826C35.5949 260.741 35.5949 354.64 93.5134 412.555C151.432 470.47 245.337 470.47 303.255 412.555C361.174 354.64 361.174 260.741 303.255 202.826ZM143.824 227.21C129.506 227.21 117.899 238.817 117.899 253.134V362.245C117.899 376.562 129.506 388.169 143.824 388.169H252.942C267.26 388.169 278.867 376.562 278.867 362.245V253.134C278.867 238.817 267.26 227.21 252.942 227.21L143.824 227.21Z" fill="url(#paint2_linear_903_1074)"/>
<path d="M161.936 271.243C182.066 251.114 214.703 251.114 234.833 271.243C254.963 291.372 254.963 324.007 234.833 344.136C214.703 364.264 182.066 364.264 161.936 344.136C141.806 324.007 141.806 291.372 161.936 271.243Z" fill="url(#paint3_linear_903_1074)"/>
</g>
<defs>
<filter id="filter0_d_903_1074" x="3.05176e-05" y="-15.1308" width="571.187" height="571.194" filterUnits="userSpaceOnUse" color-interpolation-filters="sRGB">
<feFlood flood-opacity="0" result="BackgroundImageFix"/>
<feColorMatrix in="SourceAlpha" type="matrix" values="0 0 0 0 0 0 0 0 0 0 0 0 0 0 0 0 0 0 127 0" result="hardAlpha"/>
<feOffset dx="50"/>
<feGaussianBlur stdDeviation="50"/>
<feComposite in2="hardAlpha" operator="out"/>
<feColorMatrix type="matrix" values="0 0 0 0 0 0 0 0 0 0 0 0 0 0 0 0 0 0 0.5 0"/>
<feBlend mode="normal" in2="BackgroundImageFix" result="effect1_dropShadow_903_1074"/>
<feBlend mode="normal" in="SourceGraphic" in2="effect1_dropShadow_903_1074" result="shape"/>
</filter>
<linearGradient id="paint0_linear_903_1074" x1="421" y1="85" x2="254.5" y2="254.5" gradientUnits="userSpaceOnUse">
<stop stop-color="white"/>
<stop offset="1" stop-color="white" stop-opacity="0"/>
</linearGradient>
<linearGradient id="paint1_linear_903_1074" x1="350" y1="156" x2="274" y2="232" gradientUnits="userSpaceOnUse">
<stop stop-color="#22DDD2"/>
<stop offset="1" stop-color="#22DDD2" stop-opacity="0"/>
</linearGradient>
<linearGradient id="paint2_linear_903_1074" x1="300.5" y1="206" x2="50" y2="456" gradientUnits="userSpaceOnUse">
<stop stop-color="white"/>
<stop offset="1" stop-color="white" stop-opacity="0"/>
</linearGradient>
<linearGradient id="paint3_linear_903_1074" x1="234.833" y1="271.243" x2="161.94" y2="344.14" gradientUnits="userSpaceOnUse">
<stop stop-color="#22DDD2"/>
<stop offset="1" stop-color="#22DDD2" stop-opacity="0"/>
</linearGradient>
</defs>
</svg>
