<svg width="302" height="48" viewBox="0 0 302 48" fill="none" xmlns="http://www.w3.org/2000/svg">
<path d="M23.3413 47.8335C19.1576 47.8335 15.312 46.8517 11.8045 44.8879C8.33925 42.9242 5.57127 40.1921 3.50057 36.6916C1.47212 33.1483 0.457901 29.1782 0.457901 24.7812C0.457901 20.3842 1.47212 16.4354 3.50057 12.9349C5.57127 9.43436 8.33925 6.70224 11.8045 4.73853C15.312 2.77481 19.1576 1.79296 23.3413 1.79296C27.5249 1.79296 31.3494 2.77481 34.8147 4.73853C38.3222 6.70224 41.069 9.43436 43.0552 12.9349C45.0837 16.4354 46.0979 20.3842 46.0979 24.7812C46.0979 29.1782 45.0837 33.1483 43.0552 36.6916C41.0268 40.1921 38.2799 42.9242 34.8147 44.8879C31.3494 46.8517 27.5249 47.8335 23.3413 47.8335ZM23.3413 37.8442C26.8911 37.8442 29.7224 36.6489 31.8354 34.2583C33.9906 31.8677 35.0682 28.7086 35.0682 24.7812C35.0682 20.8111 33.9906 17.6521 31.8354 15.3042C29.7224 12.9136 26.8911 11.7182 23.3413 11.7182C19.7492 11.7182 16.8756 12.8922 14.7204 15.2401C12.6074 17.588 11.551 20.7684 11.551 24.7812C11.551 28.7513 12.6074 31.9317 14.7204 34.3223C16.8756 36.6702 19.7492 37.8442 23.3413 37.8442Z" fill="white"/>
<path d="M76.9513 11.4237V18.4418H67.5191V47.3853H58.8475V18.4418H49.4152V11.4237H76.9513Z" fill="white"/>
<path d="M89.975 18.4418V25.7161H101.588V32.4781H89.975V40.3671H103.109V47.3853H81.3034V11.4237H103.109V18.4418H89.975Z" fill="white"/>
<path d="M107.268 29.3533C107.268 25.8015 108.029 22.6425 109.55 19.8762C111.072 17.0758 113.185 14.9071 115.889 13.3703C118.628 11.7994 121.721 11.0139 125.169 11.0139C129.395 11.0139 133.013 12.1409 136.021 14.3949C139.03 16.6489 141.042 19.7225 142.056 23.6158H132.522C131.812 22.1131 130.798 20.969 129.48 20.1836C128.195 19.3981 126.724 19.0053 125.068 19.0053C122.397 19.0053 120.233 19.9445 118.577 21.8228C116.92 23.7012 116.092 26.2113 116.092 29.3533C116.092 32.4952 116.92 35.0053 118.577 36.8837C120.233 38.762 122.397 39.7012 125.068 39.7012C126.724 39.7012 128.195 39.3084 129.48 38.5229C130.798 37.7375 131.812 36.5934 132.522 35.0907H142.056C141.042 38.984 139.03 42.0576 136.021 44.3116C133.013 46.5315 129.395 47.6414 125.169 47.6414C121.721 47.6414 118.628 46.873 115.889 45.3362C113.185 43.7652 111.072 41.5966 109.55 38.8303C108.029 36.064 107.268 32.905 107.268 29.3533Z" fill="white"/>
<path d="M178.199 11.4237V47.3853H169.527V32.5806H156.038V47.3853H147.366V11.4237H156.038V25.5112H169.527V11.4237H178.199Z" fill="white"/>
<path d="M192.116 48C189.834 48 187.958 47.334 186.487 46.0021C185.067 44.619 184.357 42.9285 184.357 40.9306C184.357 38.8815 185.067 37.1654 186.487 35.7823C187.958 34.3991 189.834 33.7076 192.116 33.7076C194.348 33.7076 196.173 34.3991 197.593 35.7823C199.064 37.1654 199.799 38.8815 199.799 40.9306C199.799 42.9285 199.064 44.619 197.593 46.0021C196.173 47.334 194.348 48 192.116 48Z" fill="white"/>
<path d="M217.552 0V47.3853H206.713V0H217.552Z" fill="white"/>
<path d="M228.983 15.8292C227.461 15.8292 226.211 15.3853 225.23 14.4973C224.284 13.5752 223.81 12.4482 223.81 11.1163C223.81 9.75027 224.284 8.62326 225.23 7.73532C226.211 6.81323 227.461 6.35219 228.983 6.35219C230.47 6.35219 231.687 6.81323 232.634 7.73532C233.614 8.62326 234.105 9.75027 234.105 11.1163C234.105 12.4482 233.614 13.5752 232.634 14.4973C231.687 15.3853 230.47 15.8292 228.983 15.8292ZM233.293 18.8004V47.3853H224.622V18.8004H233.293Z" fill="white"/>
<path d="M256.819 18.4931C260.132 18.4931 262.769 19.5859 264.73 21.7716C266.725 23.9232 267.722 26.8943 267.722 30.6852V47.3853H259.101V31.8634C259.101 29.9509 258.611 28.4653 257.631 27.4066C256.65 26.3479 255.332 25.8186 253.675 25.8186C252.019 25.8186 250.7 26.3479 249.72 27.4066C248.739 28.4653 248.249 29.9509 248.249 31.8634V47.3853H239.577V18.8004H248.249V22.5912C249.128 21.3276 250.311 20.3372 251.799 19.6201C253.286 18.8687 254.96 18.4931 256.819 18.4931Z" fill="white"/>
<path d="M291.041 47.3853L282.42 35.3981V47.3853H273.748V9.47705H282.42V30.429L290.99 18.8004H301.69L289.925 33.1441L301.791 47.3853H291.041Z" fill="white"/>
</svg>
