<svg width="32" height="30" viewBox="0 0 32 30" fill="none" xmlns="http://www.w3.org/2000/svg">
<g clip-path="url(#clip0_908_20)">
<path d="M25.8121 22.5H21.9371C19.9996 22.5 18.6433 20.25 17.2871 17.4375C16.7058 18.75 16.1246 20.25 15.3496 21.75C16.8996 24.375 18.8371 26.25 21.9371 26.25H25.8121V30L31.6246 24.375L25.8121 18.75V22.5ZM11.0871 12.375C11.6683 11.0625 12.2496 9.5625 13.0246 8.25C11.4746 5.625 9.34332 3.75 6.43707 3.75H0.624573V7.5H6.43707C8.37457 7.5 9.73082 9.75 11.0871 12.375Z" fill="white"/>
<path d="M31.6246 5.625L25.8121 0V3.75H21.9371C16.7058 3.75 14.3808 9.375 12.2496 14.4375C10.6996 18.375 8.95582 22.5 6.43707 22.5H0.624573V26.25H6.43707C11.4746 26.25 13.7996 21 15.9308 15.75C17.6746 11.625 19.4183 7.5 21.9371 7.5H25.8121V11.25L31.6246 5.625Z" fill="white"/>
</g>
<defs>
<clipPath id="clip0_908_20">
<rect width="31" height="30" fill="white" transform="translate(0.624573)"/>
</clipPath>
</defs>
</svg>
