<svg width="44" height="33" viewBox="0 0 44 33" fill="none" xmlns="http://www.w3.org/2000/svg">
<path d="M44 28.5V4.5C44 2.28667 42.2669 0.5 40.1199 0.5H3.88007C1.7331 0.5 0 2.28667 0 4.5V28.5C0 30.7133 1.7331 32.5 3.88007 32.5H40.1199C42.2669 32.5 44 30.7133 44 28.5ZM40.6114 4.20667C41.465 5.08667 40.9994 5.99333 40.5338 6.44667L30.0317 16.3667L40.1199 27.1933C40.4303 27.5667 40.6373 28.1533 40.2751 28.5533C39.9389 28.98 39.1628 28.9533 38.8266 28.6867L27.5226 18.74L21.9871 23.94L16.4774 18.74L5.17343 28.6867C4.83715 28.9533 4.06114 28.98 3.72487 28.5533C3.36273 28.1533 3.56966 27.5667 3.88007 27.1933L13.9683 16.3667L3.4662 6.44667C3.00059 5.99333 2.53498 5.08667 3.38859 4.20667C4.24221 3.32667 5.12169 3.75333 5.84597 4.39333L21.9871 17.8333L38.154 4.39333C38.8783 3.75333 39.7578 3.32667 40.6114 4.20667Z" fill="white"/>
</svg>
